<svg xmlns="http://www.w3.org/2000/svg" fill="none" viewBox="0 0 140 60" height="60" width="140">
  <g clip-path="url(#clip0_813_5501)">
    <g clip-path="url(#clip1_813_5501)">
      <path fill="white" d="M58.9414 25.7478C55.0696 25.7478 51.9114 28.9155 51.9114 32.7777C51.9114 36.6399 55.0792 39.8077 58.9414 39.8077C62.8036 39.8077 65.9713 36.6399 65.9713 32.7777C65.9713 28.9155 62.8036 25.7478 58.9414 25.7478ZM58.9414 38.4759C55.7736 38.4759 53.2146 35.917 53.2146 32.7492C53.2146 29.61 55.7736 27.0225 58.9414 27.0225C62.1091 27.0225 64.668 29.5814 64.668 32.7492C64.63 35.917 62.0711 38.4759 58.9414 38.4759ZM114.572 32.3592C114.392 28.6777 111.309 25.7858 107.628 25.7858C103.794 25.7858 100.684 28.8965 100.684 32.7302C100.684 36.5638 103.794 39.6745 107.628 39.6745C109.882 39.6745 112.165 38.5806 113.412 36.8683L112.346 36.0787C111.309 37.4485 109.454 38.3332 107.599 38.3332C104.584 38.3332 102.149 35.9931 101.968 33.0061H114.572V32.3592ZM102.091 31.7504C102.577 29.1343 104.86 27.1176 107.637 27.1176C110.406 27.1176 112.727 29.0963 113.183 31.7504H102.091ZM130.715 32.3592C130.506 28.6777 127.453 25.7858 123.771 25.7858C119.937 25.7858 116.827 28.8965 116.827 32.7302C116.827 36.5638 119.937 39.6745 123.771 39.6745C126.026 39.6745 128.309 38.5806 129.555 36.8683L128.489 36.0787C127.453 37.4485 125.598 38.3332 123.743 38.3332C120.727 38.3332 118.292 35.9931 118.111 33.0061H130.715V32.3592ZM118.225 31.7504C118.71 29.1343 120.993 27.1176 123.771 27.1176C126.539 27.1176 128.86 29.0963 129.317 31.7504H118.225ZM88.5071 21.5431C86.8614 23.2174 86.89 25.8714 86.928 25.9856V26.3471H84.4642V27.7169H86.928V39.4367H88.2979V27.7264H93.0162V26.3566H88.2979V25.9571C88.2979 25.9285 88.2693 23.7691 89.5155 22.4849C90.0958 21.8761 90.8853 21.5717 91.8937 21.5717H93.0543V20.2018H91.8937C90.4858 20.2399 89.3538 20.6584 88.5071 21.5431ZM136.404 27.7264H140V26.3566H136.404V22.0663H135.034V26.3566H132.199V27.7264H135.034V34.0905C135.034 34.2142 135.006 36.7731 136.585 38.4188C137.441 39.3035 138.564 39.7316 139.962 39.7316V38.3618C138.954 38.3618 138.164 38.0574 137.555 37.4485C136.338 36.2309 136.366 34.1286 136.366 34.0715V27.736H136.404V27.7264ZM96.0603 20.354H97.4301V39.5413H96.0603V20.354ZM75.2939 25.8714C71.6695 25.8714 68.6825 28.8299 68.6825 32.4828V39.5509H70.0523V32.4733C70.0523 29.5814 72.3925 27.2318 75.2939 27.2318C78.1858 27.2318 80.5354 29.5719 80.5354 32.4733V39.5413H81.9052V32.4733C81.8672 28.8585 78.9087 25.8714 75.2939 25.8714Z" clip-rule="evenodd" fill-rule="evenodd"></path>
      <path fill="white" d="M21.4229 32.6636C21.4229 32.6636 21.7273 32.9395 22.241 33.4246C22.7927 33.9383 23.6108 34.6423 24.6763 35.4984C25.7417 36.3165 27.1401 37.2678 28.8143 37.9908C29.6705 38.3237 30.5837 38.5996 31.554 38.6281C32.0392 38.6281 32.5243 38.6281 32.9809 38.4759C33.2283 38.4474 33.4375 38.3237 33.6468 38.2286C33.8561 38.1049 34.0749 38.0193 34.2842 37.8671C34.6837 37.5912 35.0738 37.2583 35.3782 36.8302C35.6826 36.4021 35.9584 35.9455 36.1963 35.4318C36.6243 34.3949 36.9002 33.2439 36.9573 32.0167C37.0143 30.7896 36.8622 29.5529 36.4722 28.3638C36.0726 27.2033 35.4352 26.1378 34.522 25.4719C33.6373 24.8346 32.5148 24.5872 31.2972 24.768C30.6884 24.8916 30.051 25.0438 29.4422 25.3197C29.1378 25.4434 28.8334 25.5956 28.5004 25.7478C28.196 25.9285 27.8916 26.0807 27.5872 26.2615C26.3695 26.994 25.1804 27.9072 24.0579 28.8775C23.5062 29.3912 22.9354 29.8859 22.4122 30.4281C22.1363 30.704 21.8604 30.9418 21.6226 31.2462L20.8045 32.1023C19.7391 33.2249 18.5215 34.414 17.3038 35.4509C16.0577 36.5163 14.7449 37.4866 13.2799 38.3427C11.853 39.1608 10.2358 39.8648 8.43789 40.1121C7.55319 40.2358 6.61145 40.2073 5.66968 39.9885C4.75645 39.7792 3.87173 39.3511 3.13924 38.7708C2.40676 38.1905 1.82647 37.4961 1.40791 36.7636C0.979829 36.0311 0.64692 35.2701 0.437638 34.4805C0.228356 33.7195 0.104648 32.93 0.0380582 32.1689C-0.0190186 31.4079 -0.0189907 30.6469 0.0666245 29.9144C0.218829 28.4494 0.618337 27.051 1.28423 25.7763C1.61718 25.139 2.01675 24.5587 2.5019 24.045C2.95852 23.5313 3.53881 23.0747 4.11909 22.7322C4.72791 22.3993 5.36525 22.1519 6.00261 22.0663C6.63997 21.9427 7.27731 21.9712 7.88613 22.0378C9.07523 22.19 10.1121 22.6181 10.9968 23.0747C12.7662 24.045 14.0409 25.177 15.0493 26.1473C16.0196 27.1176 16.7236 27.9738 17.2087 28.5255C17.6653 29.1058 17.9127 29.4102 17.9127 29.4102C17.9127 29.4102 17.6082 29.1343 17.0945 28.6492C16.5428 28.1355 15.7247 27.4316 14.6592 26.6135C13.5938 25.7954 12.1954 24.8441 10.5212 24.1211C9.66504 23.7882 8.75181 23.5123 7.7815 23.4837C6.83973 23.4552 5.85993 23.6645 5.07037 24.2448C4.67083 24.5206 4.28078 24.8536 3.97638 25.2817C3.67197 25.7097 3.36757 26.1664 3.15829 26.68C2.70167 27.7169 2.45435 28.868 2.39727 30.0951C2.3402 31.3223 2.49241 32.559 2.88244 33.7481C3.28197 34.9086 3.91932 35.9741 4.83255 36.6114C5.71724 37.2488 6.83971 37.4961 8.05735 37.2773C8.20955 37.2773 8.3618 37.2202 8.514 37.1822C8.66621 37.1536 8.8184 37.1251 8.9706 37.0585L9.4272 36.9063L9.88385 36.7256C10.0361 36.6685 10.1882 36.6019 10.3404 36.5163L10.797 36.307C11.1015 36.1263 11.4059 35.9741 11.7103 35.7933C12.9279 35.0608 14.1171 34.1476 15.2396 33.1773C16.3621 32.1689 17.3989 31.1701 18.531 29.981L19.3491 29.1248C19.625 28.8204 19.9294 28.5446 20.2052 28.2687C20.7855 27.6884 21.3943 27.1462 22.0032 26.623C23.2493 25.5575 24.5621 24.5872 26.0271 23.7311C27.454 22.913 29.0712 22.209 30.8691 21.9617C31.7538 21.838 32.6955 21.8666 33.6373 22.1139C34.5505 22.3232 35.4352 22.7798 36.1297 23.3601C36.8621 23.9404 37.4044 24.6348 37.861 25.3673C38.2891 26.0998 38.622 26.8608 38.8313 27.6504C39.0406 28.4114 39.1643 29.2009 39.2308 29.962C39.2879 30.723 39.288 31.484 39.2023 32.2165C39.0501 33.6815 38.6506 35.1084 38.0132 36.3546C37.6803 36.9919 37.2807 37.5722 36.7956 38.0859C36.339 38.5996 35.7587 39.0562 35.1499 39.3987C34.8455 39.5794 34.5411 39.7031 34.2081 39.8267C33.8752 39.9219 33.5707 40.036 33.2378 40.0741C32.6004 40.1977 31.9631 40.1692 31.3543 40.1026C30.1652 39.9219 29.1283 39.4938 28.2436 39.0372C26.4742 38.0669 25.1995 36.9063 24.1911 35.9265C23.2208 34.9562 22.5168 34.1 22.0317 33.5198C21.6607 32.968 21.4229 32.6636 21.4229 32.6636Z" clip-rule="evenodd" fill-rule="evenodd"></path>
    </g>
  </g>
  <defs>
    <clipPath id="clip0_813_5501">
      <rect fill="white" height="60" width="140"></rect>
    </clipPath>
    <clipPath id="clip1_813_5501">
      <rect transform="translate(0 5.26669)" fill="white" height="49.4666" width="140"></rect>
    </clipPath>
  </defs>
</svg>
